<?xml version="1.0" encoding="UTF-8"?>
<svg id="Layer_2" data-name="Layer 2" xmlns="http://www.w3.org/2000/svg" viewBox="0 0 717.9 201.61">
  <defs>
    <style>
      .cls-1 {
        fill: #000;
      }

      .cls-1, .cls-2 {
        stroke-width: 0px;
      }

      .cls-2 {
        fill: #f16829;
      }
    </style>
  </defs>
  <g id="Layer_1-2" data-name="Layer 1">
    <g>
      <g>
        <path class="cls-1" d="M393.98,107.47l-11.33,91.99h-21.58l1.27-9.96c-9.25,8.07-18.82,12.11-28.71,12.11-12.17,0-22.1-4.13-29.79-12.4-7.68-8.27-11.52-18.98-11.52-32.13,0-15.17,4.39-27.6,13.18-37.31,8.92-9.7,20.35-14.55,34.28-14.55,6.58,0,12.17,1.07,16.8,3.22,4.69,2.15,9.47,5.86,14.36,11.13l1.46-12.11h21.58ZM367.71,150.83c0-8.14-2.34-14.75-7.03-19.82-4.69-5.14-10.74-7.71-18.16-7.71-8.07,0-14.84,3.16-20.31,9.47-5.47,6.38-8.2,14.19-8.2,23.44,0,8.07,2.28,14.68,6.84,19.82,4.56,5.14,10.42,7.71,17.58,7.71,7.94,0,14.81-3.22,20.61-9.67,5.79-6.58,8.69-14.32,8.69-23.24Z"/>
        <path class="cls-1" d="M506.96,107.47l-63.28,94.14-32.71-94.14h22.46l15.82,49.02,33.01-49.02h24.71Z"/>
        <path class="cls-1" d="M611.85,107.47l-11.33,91.99h-21.58l1.27-9.96c-9.25,8.07-18.82,12.11-28.71,12.11-12.17,0-22.1-4.13-29.79-12.4-7.68-8.27-11.52-18.98-11.52-32.13,0-15.17,4.39-27.6,13.18-37.31,8.92-9.7,20.34-14.55,34.28-14.55,6.58,0,12.17,1.07,16.8,3.22,4.69,2.15,9.47,5.86,14.36,11.13l1.46-12.11h21.58ZM585.58,150.83c0-8.14-2.34-14.75-7.03-19.82-4.69-5.14-10.74-7.71-18.16-7.71-8.07,0-14.84,3.16-20.31,9.47-5.47,6.38-8.2,14.19-8.2,23.44,0,8.07,2.28,14.68,6.84,19.82,4.56,5.14,10.42,7.71,17.58,7.71,7.94,0,14.81-3.22,20.61-9.67,5.79-6.58,8.69-14.32,8.69-23.24Z"/>
        <path class="cls-1" d="M663.51,107.47l-.98,8.5c8.53-7.16,17.15-10.74,25.88-10.74s16.18,2.51,21.58,7.52c5.27,5.01,7.91,11.85,7.91,20.51,0,4.69-.39,10.29-1.17,16.8l-6.15,49.41h-21.48l6.64-54.1c.26-2.02.44-3.81.54-5.37s.15-2.96.15-4.2c0-8.33-4.49-12.5-13.48-12.5-5.53,0-10.29,1.69-14.26,5.08-3.26,2.67-5.66,5.92-7.23,9.77-.85,1.95-1.56,4.35-2.15,7.18s-1.11,6.1-1.56,9.81l-5.47,44.34h-21.58l11.33-91.99h21.48Z"/>
      </g>
      <path class="cls-1" d="M150.73,0h28.6l-82.4,200.6h-28.4L150.73,0Z"/>
      <path class="cls-2" d="M57.5,113.5L0,56.75,57.5,0h36l-57.75,56.75,57.75,56.75h-36Z"/>
      <path class="cls-2" d="M191.15.46h36l57.5,56.75-57.5,56.75h-36l57.75-56.75L191.15.46Z"/>
    </g>
  </g>
</svg>